<svg id="Group_8571" data-name="Group 8571" xmlns="http://www.w3.org/2000/svg" width="24" height="40.003" viewBox="0 0 24 40.003">
  <path id="Subtraction_116" data-name="Subtraction 116" d="M4,0A20.15,20.15,0,0,0,0,.4V39.6A20.143,20.143,0,0,0,4,40a19.865,19.865,0,0,0,14.141-5.858,20,20,0,0,0,0-28.287A19.865,19.865,0,0,0,4,0Z" transform="translate(24 40.003) rotate(180)" fill="#7f3ffc"/>
  <g id="chevron-down" transform="translate(23.6 10.401) rotate(90)">
    <path id="Path_690" data-name="Path 690" d="M0,19.2H19.2V0H0Z" transform="translate(0 0)" fill="none"/>
    <path id="Path_691" data-name="Path 691" d="M0,4.8,4.8,0,9.6,4.8" transform="translate(4.8 7.2)" fill="none" stroke="#f2f2f2" stroke-linecap="round" stroke-linejoin="round" stroke-width="1.5"/>
  </g>
</svg>
