<svg xmlns="http://www.w3.org/2000/svg" width="23.999" height="23.998" viewBox="0 0 23.999 23.998">
  <g id="black_jack" data-name="black jack" transform="translate(0 0)">
    <path id="playing-cards" d="M20.466,1.967,14.78.221a5.011,5.011,0,0,0-6.224,3.24L8.368,4H5A5.006,5.006,0,0,0,0,9V19a5.006,5.006,0,0,0,5,5h6a4.975,4.975,0,0,0,3.92-1.934,5.029,5.029,0,0,0,.689.052,4.976,4.976,0,0,0,4.775-3.563L23.8,8.156a5.021,5.021,0,0,0-3.334-6.189ZM11,22H5a3,3,0,0,1-3-3V9A3,3,0,0,1,5,6h6a3,3,0,0,1,3,3V19A3,3,0,0,1,11,22ZM21.887,7.563l-3.412,10.4a2.992,2.992,0,0,1-2.6,2.134A4.992,4.992,0,0,0,16,19V9a5.006,5.006,0,0,0-5-5h-.507a3,3,0,0,1,3.7-1.867l5.686,1.746a3.006,3.006,0,0,1,2.008,3.684Z" transform="translate(0 -0.002)" fill="#7f3ffc"/>
    <path id="Path_21411" data-name="Path 21411" d="M976.517,737.593a12.572,12.572,0,0,0-2.747-2.783s-2.342,1.739-2.83,2.857c-.019.042-.038.084-.058.126a1.226,1.226,0,0,0-.128.568,1.455,1.455,0,0,0,1.482,1.336,1.63,1.63,0,0,0,1.132-.4,1.419,1.419,0,0,0,.231-.263,2.693,2.693,0,0,1-.743,1.773h1.8a2.691,2.691,0,0,1-.742-1.773,1.577,1.577,0,0,0,1.314.661,1.63,1.63,0,0,0,1.083-.4,1.284,1.284,0,0,0,.448-.961,1.237,1.237,0,0,0-.172-.627C976.559,737.673,976.538,737.633,976.517,737.593Z" transform="translate(-965.754 -723.812)" fill="#7f3ffc"/>
  </g>
</svg>
