<svg xmlns="http://www.w3.org/2000/svg" width="24.87" height="24.87" viewBox="0 0 24.87 24.87">
  <g id="slot" transform="translate(12.435 -4.536) rotate(45)">
    <g id="Path_21433" data-name="Path 21433" transform="translate(-53.022)" fill="rgba(212,212,213,0)">
      <path d="M64.633,10.775l.378.372.379-.371a52.081,52.081,0,0,0,4.56-4.931,4.355,4.355,0,0,0,.659-2.411A3.291,3.291,0,0,0,67.24,0a2.909,2.909,0,0,0-2.224.907A2.876,2.876,0,0,0,62.8,0a3.251,3.251,0,0,0-3.36,3.434A4.356,4.356,0,0,0,60.1,5.845,52.512,52.512,0,0,0,64.633,10.775Z" stroke="none"/>
      <path d="M 65.01470947265625 8.330418586730957 C 66.65077972412109 6.685070991516113 67.96410369873047 5.254584789276123 68.24485015869141 4.797841548919678 C 68.50560760498047 4.373721599578857 68.60720825195312 3.991361618041992 68.60720825195312 3.43416166305542 C 68.60714721679688 2.069141626358032 67.46833801269531 2.000001668930054 67.24004364013672 2.000001668930054 C 66.72583770751953 2.000001668930054 66.55083465576172 2.191831588745117 66.49332427978516 2.254871606826782 L 65.01725769042969 3.872931718826294 L 63.53956604003906 2.256341695785522 C 63.4389762878418 2.146301746368408 63.25243759155273 2.000001668930054 62.79582595825195 2.000001668930054 C 61.61265563964844 2.000001668930054 61.43599700927734 2.898491621017456 61.43599700927734 3.434071779251099 C 61.43599700927734 3.987051725387573 61.53863525390625 4.369481563568115 61.80214691162109 4.798181533813477 C 62.08291625976562 5.255047798156738 63.38888168334961 6.685232639312744 65.01470947265625 8.330418586730957 M 65.01026916503906 11.147141456604 L 64.63276672363281 10.77524185180664 C 64.24241638183594 10.39061164855957 60.79873657226562 6.985241889953613 60.09820556640625 5.845371723175049 C 59.64029693603516 5.100391864776611 59.43599700927734 4.356801509857178 59.43599700927734 3.434071779251099 C 59.43599700927734 1.412161707878113 60.817626953125 1.681976300460519e-06 62.79582595825195 1.681976300460519e-06 C 63.91098785400391 1.681976300460519e-06 64.60363006591797 0.4560816884040833 65.01577758789062 0.9069716930389404 C 65.55430603027344 0.3166416883468628 66.31925964355469 1.681976300460519e-06 67.24004364013672 1.681976300460519e-06 C 68.91326904296875 1.681976300460519e-06 70.60710906982422 1.179581642150879 70.60720825195312 3.434071779251099 C 70.60720825195312 4.360801696777344 70.40409851074219 5.104491710662842 69.94857025146484 5.845371723175049 C 69.24761962890625 6.985781669616699 65.78181457519531 10.39180183410645 65.38897705078125 10.77643203735352 L 65.01026916503906 11.147141456604 Z" stroke="none" fill="rgba(75,68,83,0.5)"/>
    </g>
    <g id="Path_21434" data-name="Path 21434" transform="translate(-53.022 -106.241)" fill="rgba(212,212,213,0)">
      <path d="M65.41,119.466l-.378-.372-.379.371a52.083,52.083,0,0,0-4.56,4.931,4.356,4.356,0,0,0-.659,2.411,3.291,3.291,0,0,0,3.367,3.434,2.909,2.909,0,0,0,2.224-.907,2.875,2.875,0,0,0,2.22.907,3.251,3.251,0,0,0,3.36-3.434,4.357,4.357,0,0,0-.662-2.411A52.513,52.513,0,0,0,65.41,119.466Z" stroke="none"/>
      <path d="M 65.02839660644531 121.9107131958008 C 63.39239501953125 123.5559539794922 62.0791015625 124.9864196777344 61.79835510253906 125.4431610107422 C 61.53759002685547 125.8673477172852 61.43598937988281 126.249755859375 61.43598937988281 126.8070831298828 C 61.43598937988281 128.1720275878906 62.57477569580078 128.2411804199219 62.80305480957031 128.2411804199219 C 63.31700134277344 128.2411804199219 63.49221038818359 128.0491333007812 63.54978179931641 127.9860382080078 L 65.02622985839844 126.3678817749023 L 66.50375366210938 127.9850616455078 C 66.60418701171875 128.0950012207031 66.79054260253906 128.2411804199219 67.24717712402344 128.2411804199219 C 68.43032836914062 128.2411804199219 68.60699462890625 127.3426666259766 68.60699462890625 126.8070831298828 C 68.60699462890625 126.2542266845703 68.50431060791016 125.8717422485352 68.2408447265625 125.4429626464844 C 67.95992279052734 124.9858551025391 66.65408325195312 123.5557556152344 65.02839660644531 121.9107131958008 M 65.03282928466797 119.093994140625 L 65.41033935546875 119.4659118652344 C 65.80068969726562 119.8505249023438 69.2442626953125 123.2559127807617 69.94477844238281 124.3957824707031 C 70.40269470214844 125.1409759521484 70.60699462890625 125.8845596313477 70.60699462890625 126.8070831298828 C 70.60699462890625 128.8289794921875 69.22537231445312 130.2411804199219 67.24717712402344 130.2411804199219 C 66.13189697265625 130.2411804199219 65.43926239013672 129.7850799560547 65.02721405029297 129.3340759277344 C 64.48857879638672 129.9244079589844 63.72362518310547 130.2411804199219 62.80305480957031 130.2411804199219 C 61.12982177734375 130.2411804199219 59.43598937988281 129.0616760253906 59.43598937988281 126.8070831298828 C 59.43598937988281 125.8804626464844 59.63909912109375 125.1366500854492 60.09452819824219 124.3957824707031 C 60.79559326171875 123.255256652832 64.26129913330078 119.8493347167969 64.65412902832031 119.4647216796875 L 65.03282928466797 119.093994140625 Z" stroke="none" fill="rgba(75,68,83,0.5)"/>
    </g>
    <g id="Path_21435" data-name="Path 21435" transform="translate(-106.241 -53.022)" fill="rgba(212,212,213,0)">
      <path d="M129.334,65.017a2.875,2.875,0,0,0,.907-2.22,3.251,3.251,0,0,0-3.434-3.36,4.356,4.356,0,0,0-2.411.662,52.5,52.5,0,0,0-4.93,4.535l-.372.378.371.379a52.083,52.083,0,0,0,4.931,4.56,4.355,4.355,0,0,0,2.411.659,3.291,3.291,0,0,0,3.434-3.367A2.909,2.909,0,0,0,129.334,65.017Z" stroke="none"/>
      <path d="M 126.8071746826172 61.43698883056641 C 126.254150390625 61.43698883056641 125.8717651367188 61.53961181640625 125.4430618286133 61.80316162109375 C 124.9147720336914 62.12782287597656 123.300163269043 63.64753723144531 121.9116821289062 65.01663208007812 C 123.5568008422852 66.65242004394531 124.9867401123047 67.9652099609375 125.4433517456055 68.24587249755859 C 125.8672943115234 68.50654602050781 126.2496719360352 68.60810089111328 126.8071746826172 68.60810089111328 C 128.1720275878906 68.60810089111328 128.2411499023438 67.46941375732422 128.2411499023438 67.24114990234375 C 128.2411499023438 66.72688293457031 128.0491027832031 66.55166625976562 127.9860153198242 66.49407958984375 L 126.3678588867188 65.01761627197266 L 127.9850616455078 63.54011535644531 C 128.0950012207031 63.43967437744141 128.2411499023438 63.25333404541016 128.2411499023438 62.79671478271484 C 128.2411499023438 61.61363983154297 127.3427200317383 61.43698883056641 126.8071746826172 61.43698883056641 M 126.8071746826172 59.43698883056641 C 128.8289794921875 59.43698883056641 130.2411499023438 60.81861877441406 130.2411499023438 62.79671478271484 C 130.2411499023438 63.91197967529297 129.7850646972656 64.60462188720703 129.3340606689453 65.01666259765625 C 129.9243927001953 65.55530548095703 130.2411499023438 66.32026672363281 130.2411499023438 67.24114990234375 C 130.2411499023438 68.91436767578125 129.0616607666016 70.60810089111328 126.8071746826172 70.60810089111328 C 125.8802337646484 70.60810089111328 125.1364440917969 70.40499114990234 124.3957748413086 69.94956207275391 C 123.25537109375 69.24860382080078 119.8493499755859 65.78279876708984 119.4647216796875 65.38996887207031 L 119.093994140625 65.01127624511719 L 119.4659118652344 64.63376617431641 C 119.8505401611328 64.24330139160156 123.2560119628906 60.79973602294922 124.3958892822266 60.09921264648438 C 125.1407623291016 59.64128875732422 125.8843383789062 59.43698883056641 126.8071746826172 59.43698883056641 Z" stroke="none" fill="rgba(75,68,83,0.5)"/>
    </g>
    <g id="Path_21436" data-name="Path 21436" transform="translate(0 -53.022)" fill="rgba(212,212,213,0)">
      <path d="M10.775,65.41l.372-.378-.371-.379a52.081,52.081,0,0,0-4.931-4.56,4.355,4.355,0,0,0-2.411-.659A3.291,3.291,0,0,0,0,62.8a2.909,2.909,0,0,0,.907,2.224A2.875,2.875,0,0,0,0,67.247a3.251,3.251,0,0,0,3.434,3.36,4.356,4.356,0,0,0,2.411-.662A52.485,52.485,0,0,0,10.775,65.41Z" stroke="none"/>
      <path d="M 3.434071779251099 68.60699462890625 C 3.987111568450928 68.60699462890625 4.369511604309082 68.50437164306641 4.798271656036377 68.24079132080078 C 5.256326198577881 67.95931243896484 6.686497211456299 66.65347290039062 8.330527305603027 65.02851867675781 C 6.684902667999268 63.39216613769531 5.254470348358154 62.078857421875 4.797901630401611 61.79822158813477 C 4.373961448669434 61.53755187988281 3.991581678390503 61.43599319458008 3.434171676635742 61.43599319458008 C 2.069141626358032 61.43606185913086 2.000001668930054 62.57478332519531 2.000001668930054 62.80305099487305 C 2.000001668930054 63.31706237792969 2.192021608352661 63.49224090576172 2.25512170791626 63.54980087280273 L 3.873551607131958 65.02627563476562 L 2.256171703338623 66.50389862060547 C 2.146201610565186 66.60436248779297 2.000001668930054 66.79073333740234 2.000001668930054 67.24726867675781 C 2.000001668930054 68.43034362792969 2.898491621017456 68.60699462890625 3.434071779251099 68.60699462890625 M 3.434071779251099 70.60699462890625 C 1.412161707878113 70.60699462890625 1.681976300460519e-06 69.22537231445312 1.681976300460519e-06 67.24726867675781 C 1.681976300460519e-06 66.13201141357422 0.456181675195694 65.43936920166016 0.9071916937828064 65.02732849121094 C 0.3167516887187958 64.48868560791016 1.681976300460519e-06 63.72373199462891 1.681976300460519e-06 62.80305099487305 C 1.681976300460519e-06 61.12982177734375 1.179581642150879 59.43610382080078 3.434071779251099 59.43599319458008 C 4.361011505126953 59.43599319458008 5.104811668395996 59.63910293579102 5.845481872558594 60.09453201293945 C 6.985891819000244 60.79549026489258 10.39180183410645 64.26129913330078 10.77643203735352 64.65412902832031 L 11.147141456604 65.03282928466797 L 10.77524185180664 65.41033935546875 C 10.39072132110596 65.80068969726562 6.9853515625 69.2442626953125 5.845371723175049 69.94477844238281 C 5.100491523742676 70.40269470214844 4.356911659240723 70.60699462890625 3.434071779251099 70.60699462890625 Z" stroke="none" fill="rgba(75,68,83,0.5)"/>
    </g>
  </g>
</svg>
